<svg version="1.1" id="Layer_1" xmlns="http://www.w3.org/2000/svg" xmlns:xlink="http://www.w3.org/1999/xlink" x="0px" y="0px"
	 width="100%" viewBox="0 0 500 500" enable-background="new 0 0 500 500" xml:space="preserve">
<path fill="#FFFFFF" opacity="1.000000" stroke="none" 
	d="
M278.000000,501.000000 
	C185.333359,501.000000 93.166710,501.000000 1.000049,501.000000 
	C1.000033,334.333405 1.000033,167.666794 1.000016,1.000139 
	C167.666565,1.000093 334.333130,1.000093 500.999756,1.000046 
	C500.999847,167.666519 500.999847,334.333038 500.999939,500.999786 
	C426.833344,501.000000 352.666656,501.000000 278.000000,501.000000 
M80.148308,280.980499 
	C79.149353,278.816742 78.150391,276.652985 76.542183,273.169586 
	C73.863060,277.124146 70.478439,279.887115 70.226929,282.910675 
	C69.477417,291.921204 69.957962,301.034058 69.957962,310.161499 
	C80.935844,310.161499 91.484985,310.161499 102.885170,310.465698 
	C105.584358,310.373474 108.283539,310.281250 111.463112,310.487976 
	C111.998848,310.386017 112.534584,310.284058 113.963806,310.457642 
	C130.786301,310.457642 147.608780,310.457642 164.717056,310.457642 
	C164.717056,308.496948 164.717056,307.053833 164.736160,305.419922 
	C164.736160,305.419922 164.709686,305.229980 164.868820,304.400757 
	C164.807495,285.937317 164.746170,267.473846 164.877136,248.300461 
	C164.244003,247.043182 163.610870,245.785919 162.302338,244.107040 
	C159.825638,242.977386 156.677612,242.440231 155.032684,240.576477 
	C152.681839,237.912872 151.356140,234.315918 149.723267,231.052185 
	C142.878998,217.372040 135.947571,203.859344 122.756653,194.795532 
	C115.948013,190.117111 112.155319,190.979782 109.099762,198.622574 
	C106.583900,204.915466 104.142151,211.317886 100.811882,217.186157 
	C96.065773,225.549286 90.377930,233.374161 85.477966,241.657074 
	C84.505966,243.300125 84.342361,246.821182 85.420898,248.005432 
	C88.242653,251.103714 91.957779,253.388336 95.713722,256.305664 
	C96.632355,255.554245 97.755409,254.291702 99.154610,253.550308 
	C105.413948,250.233643 111.484673,246.260452 118.131264,244.053543 
	C125.925697,241.465500 127.209091,242.808701 128.975830,250.641693 
	C129.378098,252.425201 129.773102,254.210342 130.050049,256.634308 
	C130.298203,257.443817 130.546341,258.253326 130.613861,259.404541 
	C130.790039,259.731506 130.966202,260.058441 130.917206,261.060028 
	C131.207489,262.727356 131.497772,264.394684 131.575928,266.889008 
	C132.048843,270.259369 132.521759,273.629761 132.559265,277.437500 
	C131.995880,278.275269 131.432495,279.113037 130.253738,280.227875 
	C126.103294,284.654114 121.952843,289.080353 117.183907,293.792023 
	C116.423698,295.126465 115.663490,296.460907 114.212952,297.892395 
	C112.471123,299.583374 110.729301,301.274323 108.359825,303.127502 
	C107.335503,304.112274 106.311180,305.097046 104.663399,306.239502 
	C103.759445,307.117371 102.855484,307.995239 101.236534,308.977478 
	C96.468735,303.407074 91.455910,298.022858 87.028023,292.194214 
	C84.501823,288.868896 82.929474,284.818939 81.495407,280.202972 
	C90.397964,281.365540 99.300529,282.528076 107.966866,283.659790 
	C107.540802,283.315552 106.715561,282.151459 105.658821,281.876221 
	C99.135437,280.177277 92.586823,278.549469 85.989067,277.173920 
	C83.175240,276.587280 81.385590,278.172882 80.148308,280.980499 
M24.836653,353.991638 
	C25.667809,354.031555 26.498962,354.106384 27.330118,354.106415 
	C155.752777,354.108643 284.175446,354.122192 412.597961,353.980957 
	C415.133453,353.978180 418.019165,352.640991 420.134827,351.095703 
	C426.303711,346.589905 432.183594,341.685974 438.140137,336.892578 
	C443.084259,332.913971 447.976440,328.870850 452.891602,324.856323 
	C452.710480,324.488831 452.529358,324.121368 452.348236,323.753876 
	C450.900909,323.753876 449.453583,323.753845 448.006256,323.753906 
	C320.749573,323.759277 193.492874,323.763885 66.236183,323.777771 
	C64.573418,323.777954 62.910664,323.895630 61.009953,323.051086 
	C61.009953,279.863953 61.009953,236.676849 61.009953,192.333679 
	C48.396500,202.406769 36.784081,211.509949 25.432114,220.927063 
	C23.698734,222.364990 22.233164,225.250504 22.222754,227.473877 
	C22.031658,268.285248 22.064831,309.097778 22.157545,349.909851 
	C22.160450,351.188721 23.305199,352.464935 24.836653,353.991638 
M213.815140,234.602341 
	C198.296661,233.656876 182.778198,232.711411 167.317688,231.769470 
	C167.317688,257.981689 167.317688,283.500122 167.317688,309.260315 
	C173.963882,308.679810 180.212448,308.134033 186.734238,307.564423 
	C187.020676,301.575226 187.287445,295.997345 187.548767,290.533234 
	C191.000122,289.208984 193.111801,290.125549 194.450302,293.291473 
	C195.286163,295.268494 196.515152,297.079071 197.564926,298.965912 
	C203.654755,309.911743 203.630112,309.827576 215.825195,306.303650 
	C219.805740,305.153442 220.455902,303.210968 218.593079,299.718597 
	C216.742401,296.248962 215.169662,292.631073 213.450546,289.026917 
	C219.663391,287.157135 222.032532,283.845520 222.034653,277.391937 
	C222.038498,265.743103 222.027328,254.094223 221.999939,242.445419 
	C221.987366,237.103821 220.145935,235.174118 213.815140,234.602341 
M248.500732,252.992065 
	C244.501175,252.992081 240.501617,252.991699 236.502060,252.992172 
	C228.207031,252.993149 225.892700,255.420792 225.999283,264.007965 
	C226.146072,275.836578 226.311539,287.664978 226.433167,299.493835 
	C226.519363,307.876953 228.701050,309.999817 237.414841,310.005951 
	C248.246918,310.013580 259.078979,310.007660 269.911072,310.007751 
	C277.561035,310.007812 280.394318,307.316620 280.548523,299.497711 
	C280.788361,287.336151 280.922302,275.171906 281.005981,263.008118 
	C281.047821,256.921326 277.027863,252.996780 270.997833,252.993149 
	C263.832001,252.988831 256.666168,252.992096 248.500732,252.992065 
M345.873505,307.689911 
	C348.134155,308.461334 350.373505,309.814301 352.659302,309.897949 
	C360.309967,310.177917 367.981110,310.138824 375.635651,309.918182 
	C377.800110,309.855835 379.934662,308.754883 382.441895,308.025909 
	C386.419342,312.367767 391.969849,309.027008 396.700592,309.950073 
	C396.700592,293.670502 396.490906,278.022339 396.836090,262.386444 
	C396.932098,258.035919 395.151398,256.012024 391.586853,254.868713 
	C389.889130,254.324158 388.035370,254.045242 386.249542,254.032654 
	C375.591431,253.957382 364.893280,254.544464 354.288696,253.787033 
	C347.996948,253.337631 345.012360,256.162872 343.285492,261.108185 
	C342.419586,263.587921 342.875580,266.529297 342.712708,269.666321 
	C348.942017,270.016388 355.721191,272.440826 359.896637,270.140045 
	C365.759888,266.909180 370.969788,268.957367 376.494385,267.735016 
	C376.494385,270.382477 376.494385,272.480042 376.494385,275.007507 
	C368.184265,275.007507 360.049683,274.960205 351.916016,275.025787 
	C347.251434,275.063385 343.331055,278.106903 343.050720,281.846588 
	C342.602783,287.821228 342.388184,293.816132 341.815277,299.777557 
	C341.499573,303.062866 342.240845,305.577576 345.873505,307.689911 
M404.974030,298.335510 
	C404.976135,299.168518 404.969574,300.001617 404.981781,300.834473 
	C405.078979,307.473267 407.615570,310.007080 414.167053,310.005676 
	C423.163544,310.003723 432.198486,309.492310 441.142761,310.173645 
	C446.958069,310.616638 450.338257,308.039337 451.404694,303.373901 
	C452.463470,298.741821 452.703705,293.415619 451.455139,288.905304 
	C450.199005,284.367432 445.106903,287.235840 441.766418,286.564331 
	C440.805450,286.371124 439.640137,286.231201 438.804535,286.600647 
	C437.511871,287.172211 435.812439,287.951294 435.347015,289.080048 
	C432.671814,295.568268 431.832550,296.056396 424.927490,294.164795 
	C424.927490,286.289856 424.927490,278.532318 424.927490,270.528503 
	C429.740631,270.528503 433.898926,270.578369 438.055695,270.518982 
	C449.667633,270.353088 448.163452,271.861511 448.377716,259.388916 
	C448.380585,259.222565 448.385101,259.053650 448.361877,258.889740 
	C447.912079,255.711075 446.557739,253.803848 442.868927,253.936432 
	C436.943512,254.149414 431.004852,253.993576 425.001038,253.993576 
	C425.001038,250.548492 425.540375,247.578339 424.820007,244.953964 
	C424.300903,243.062836 422.290131,240.494415 420.618378,240.220642 
	C416.457062,239.539215 412.109283,239.996338 407.584686,239.996338 
	C407.226288,244.799057 406.906403,249.085236 406.707977,251.744171 
	C404.412445,254.350372 402.024231,255.821152 401.858276,257.510254 
	C401.520050,260.952881 402.170990,264.553619 402.839508,268.006897 
	C403.142334,269.571136 405.175201,270.927673 405.198395,272.397736 
	C405.329834,280.720032 405.090118,289.048187 404.974030,298.335510 
M293.549164,309.005890 
	C297.672821,309.005890 301.796448,309.005890 306.332581,309.005890 
	C306.332581,295.831451 306.332581,283.080475 306.332581,270.257263 
	C310.342285,270.257263 313.929535,270.257263 317.687317,270.257263 
	C318.191589,274.238434 318.665527,277.980225 319.185089,282.082275 
	C322.956329,282.082275 326.612640,281.838287 330.222839,282.142151 
	C335.070068,282.550110 336.879700,279.886047 337.148102,275.752899 
	C337.449829,271.106659 337.521088,266.433472 337.429993,261.777161 
	C337.345398,257.454590 333.078522,253.517548 328.764313,253.499741 
	C321.104462,253.468109 313.442810,253.379303 305.785614,253.518860 
	C303.613037,253.558472 301.453369,254.306488 298.876190,254.810043 
	C295.253326,250.895325 290.224121,253.796448 285.967712,253.096115 
	C285.967712,272.049225 285.967712,290.423157 285.967712,309.005890 
	C288.605591,309.005890 290.588654,309.005890 293.549164,309.005890 
M119.143669,265.393799 
	C115.897652,265.717621 112.651642,266.041443 109.265724,266.379211 
	C109.267883,271.397858 112.967430,272.724365 116.181656,272.500977 
	C118.318748,272.352478 120.263474,269.436096 122.294312,267.758636 
	C121.510796,266.968750 120.727280,266.178833 119.143669,265.393799 
M77.168411,266.352173 
	C79.887520,268.199615 82.383774,268.119019 85.258499,264.907043 
	C82.153931,263.331757 79.344666,261.906342 75.266907,259.837250 
	C75.991356,262.754669 76.365089,264.259674 77.168411,266.352173 
M95.984222,269.732300 
	C96.834984,269.137390 97.685753,268.542480 98.536514,267.947571 
	C98.454399,267.639526 98.372284,267.331482 98.290169,267.023438 
	C94.312691,267.023438 90.335213,267.023438 85.298889,267.023438 
	C88.884056,269.954315 91.493462,272.095337 95.984222,269.732300 
z"/>
<path fill="#9AA6B1" opacity="1.000000" stroke="none" 
	d="
M61.247902,323.958435 
	C62.910664,323.895630 64.573418,323.777954 66.236183,323.777771 
	C193.492874,323.763885 320.749573,323.759277 448.006256,323.753906 
	C449.453583,323.753845 450.900909,323.753876 452.348236,323.753876 
	C452.529358,324.121368 452.710480,324.488831 452.891602,324.856323 
	C447.976440,328.870850 443.084259,332.913971 438.140137,336.892578 
	C432.183594,341.685974 426.303711,346.589905 420.134827,351.095703 
	C418.019165,352.640991 415.133453,353.978180 412.597961,353.980957 
	C284.175446,354.122192 155.752777,354.108643 27.330118,354.106415 
	C26.498962,354.106384 25.667809,354.031555 24.432335,353.540100 
	C24.615751,352.311127 25.074938,351.374359 25.810877,350.780670 
	C34.116203,344.080994 42.397186,337.347687 50.833942,330.816193 
	C54.110916,328.279236 57.765392,326.229889 61.247902,323.958435 
z"/>
<path fill="#78858E" opacity="1.000000" stroke="none" 
	d="
M61.128925,323.504761 
	C57.765392,326.229889 54.110916,328.279236 50.833942,330.816193 
	C42.397186,337.347687 34.116203,344.080994 25.810877,350.780670 
	C25.074938,351.374359 24.615751,352.311127 23.972822,353.415466 
	C23.305199,352.464935 22.160450,351.188721 22.157545,349.909851 
	C22.064831,309.097778 22.031658,268.285248 22.222754,227.473877 
	C22.233164,225.250504 23.698734,222.364990 25.432114,220.927063 
	C36.784081,211.509949 48.396500,202.406769 61.009953,192.333679 
	C61.009953,236.676849 61.009953,279.863953 61.128925,323.504761 
z"/>
<path fill="#020202" opacity="1.000000" stroke="none" 
	d="
M130.171448,255.994720 
	C129.773102,254.210342 129.378098,252.425201 128.975830,250.641693 
	C127.209091,242.808701 125.925697,241.465500 118.131264,244.053543 
	C111.484673,246.260452 105.413948,250.233643 99.154610,253.550308 
	C97.755409,254.291702 96.632355,255.554245 95.713722,256.305664 
	C91.957779,253.388336 88.242653,251.103714 85.420898,248.005432 
	C84.342361,246.821182 84.505966,243.300125 85.477966,241.657074 
	C90.377930,233.374161 96.065773,225.549286 100.811882,217.186157 
	C104.142151,211.317886 106.583900,204.915466 109.099762,198.622574 
	C112.155319,190.979782 115.948013,190.117111 122.756653,194.795532 
	C135.947571,203.859344 142.878998,217.372040 149.723267,231.052185 
	C151.356140,234.315918 152.681839,237.912872 155.032684,240.576477 
	C156.677612,242.440231 159.825638,242.977386 162.631073,244.642929 
	C162.999420,246.697052 160.802444,249.222214 164.684830,249.010406 
	C164.746170,267.473846 164.807495,285.937317 164.469452,304.768646 
	C163.727646,305.282318 163.385208,305.428101 163.042770,305.573883 
	C163.600861,305.586182 164.158966,305.598480 164.717056,305.610748 
	C164.717056,307.053833 164.717056,308.496948 164.717056,310.457642 
	C147.608780,310.457642 130.786301,310.457642 113.410172,310.087891 
	C112.231926,309.875092 111.607330,310.032074 110.982727,310.189026 
	C108.283539,310.281250 105.584358,310.373474 102.456390,310.098267 
	C102.017036,309.443634 101.991676,309.157715 101.951523,308.873108 
	C102.855484,307.995239 103.759445,307.117371 105.323654,306.140900 
	C106.985100,305.016632 107.986282,303.990967 108.987473,302.965302 
	C110.729301,301.274323 112.471123,299.583374 114.749840,298.128540 
	C118.569107,298.215454 119.490738,296.435669 117.802399,293.506592 
	C121.952843,289.080353 126.103294,284.654114 130.911819,280.110474 
	C132.893677,279.583801 134.217453,279.174591 135.541229,278.765381 
	C134.692383,278.176971 133.843521,277.588531 132.994675,277.000122 
	C132.521759,273.629761 132.048843,270.259369 132.030273,266.433960 
	C134.938171,263.981934 134.938171,263.981934 131.142365,260.385406 
	C130.966202,260.058441 130.790039,259.731506 131.024841,259.187469 
	C133.154572,257.438263 132.928894,256.907104 130.171448,255.994720 
z"/>
<path fill="#030303" opacity="1.000000" stroke="none" 
	d="
M214.248962,234.636169 
	C220.145935,235.174118 221.987366,237.103821 221.999939,242.445419 
	C222.027328,254.094223 222.038498,265.743103 222.034653,277.391937 
	C222.032532,283.845520 219.663391,287.157135 213.450546,289.026917 
	C215.169662,292.631073 216.742401,296.248962 218.593079,299.718597 
	C220.455902,303.210968 219.805740,305.153442 215.825195,306.303650 
	C203.630112,309.827576 203.654755,309.911743 197.564926,298.965912 
	C196.515152,297.079071 195.286163,295.268494 194.450302,293.291473 
	C193.111801,290.125549 191.000122,289.208984 187.548767,290.533234 
	C187.287445,295.997345 187.020676,301.575226 186.734238,307.564423 
	C180.212448,308.134033 173.963882,308.679810 167.317688,309.260315 
	C167.317688,283.500122 167.317688,257.981689 167.317688,231.769470 
	C182.778198,232.711411 198.296661,233.656876 214.248962,234.636169 
M199.954636,249.525711 
	C196.216080,249.230881 192.477524,248.936066 188.388336,248.613602 
	C188.388336,257.003418 188.388336,264.743439 188.388336,272.731110 
	C192.842728,272.351379 197.057877,271.992065 202.142929,271.558594 
	C201.681473,264.040070 201.242035,256.880127 199.954636,249.525711 
z"/>
<path fill="#050505" opacity="1.000000" stroke="none" 
	d="
M249.000534,252.992065 
	C256.666168,252.992096 263.832001,252.988831 270.997833,252.993149 
	C277.027863,252.996780 281.047821,256.921326 281.005981,263.008118 
	C280.922302,275.171906 280.788361,287.336151 280.548523,299.497711 
	C280.394318,307.316620 277.561035,310.007812 269.911072,310.007751 
	C259.078979,310.007660 248.246918,310.013580 237.414841,310.005951 
	C228.701050,309.999817 226.519363,307.876953 226.433167,299.493835 
	C226.311539,287.664978 226.146072,275.836578 225.999283,264.007965 
	C225.892700,255.420792 228.207031,252.993149 236.502060,252.992172 
	C240.501617,252.991699 244.501175,252.992081 249.000534,252.992065 
M251.558609,268.314728 
	C249.988190,268.392059 248.417770,268.469421 247.165222,268.531128 
	C247.165222,277.553711 247.165222,285.939575 247.165222,294.548920 
	C251.738388,294.857574 255.776306,295.130096 260.157593,295.425812 
	C260.157593,286.191498 260.157593,277.454407 260.157593,268.314362 
	C257.404327,268.314362 254.946640,268.314362 251.558609,268.314728 
z"/>
<path fill="#030303" opacity="1.000000" stroke="none" 
	d="
M345.553192,307.446289 
	C342.240845,305.577576 341.499573,303.062866 341.815277,299.777557 
	C342.388184,293.816132 342.602783,287.821228 343.050720,281.846588 
	C343.331055,278.106903 347.251434,275.063385 351.916016,275.025787 
	C360.049683,274.960205 368.184265,275.007507 376.494385,275.007507 
	C376.494385,272.480042 376.494385,270.382477 376.494385,267.735016 
	C370.969788,268.957367 365.759888,266.909180 359.896637,270.140045 
	C355.721191,272.440826 348.942017,270.016388 342.712708,269.666321 
	C342.875580,266.529297 342.419586,263.587921 343.285492,261.108185 
	C345.012360,256.162872 347.996948,253.337631 354.288696,253.787033 
	C364.893280,254.544464 375.591431,253.957382 386.249542,254.032654 
	C388.035370,254.045242 389.889130,254.324158 391.586853,254.868713 
	C395.151398,256.012024 396.932098,258.035919 396.836090,262.386444 
	C396.490906,278.022339 396.700592,293.670502 396.700592,309.950073 
	C391.969849,309.027008 386.419342,312.367767 382.441895,308.025909 
	C379.934662,308.754883 377.800110,309.855835 375.635651,309.918182 
	C367.981110,310.138824 360.309967,310.177917 352.659302,309.897949 
	C350.373505,309.814301 348.134155,308.461334 345.553192,307.446289 
M377.011078,291.302246 
	C377.011078,289.572083 377.011078,287.841919 377.011078,286.324371 
	C371.632111,286.324371 366.930695,286.324371 362.092712,286.324371 
	C362.326416,289.294098 362.528137,291.857056 362.746857,294.636292 
	C367.041229,294.636292 370.680145,294.802429 374.285065,294.525604 
	C375.249084,294.451538 376.109222,293.024292 377.011078,291.302246 
z"/>
<path fill="#040404" opacity="1.000000" stroke="none" 
	d="
M404.975403,297.854919 
	C405.090118,289.048187 405.329834,280.720032 405.198395,272.397736 
	C405.175201,270.927673 403.142334,269.571136 402.839508,268.006897 
	C402.170990,264.553619 401.520050,260.952881 401.858276,257.510254 
	C402.024231,255.821152 404.412445,254.350372 406.707977,251.744171 
	C406.906403,249.085236 407.226288,244.799057 407.584686,239.996338 
	C412.109283,239.996338 416.457062,239.539215 420.618378,240.220642 
	C422.290131,240.494415 424.300903,243.062836 424.820007,244.953964 
	C425.540375,247.578339 425.001038,250.548492 425.001038,253.993576 
	C431.004852,253.993576 436.943512,254.149414 442.868927,253.936432 
	C446.557739,253.803848 447.912079,255.711075 448.361877,258.889740 
	C448.385101,259.053650 448.380585,259.222565 448.377716,259.388916 
	C448.163452,271.861511 449.667633,270.353088 438.055695,270.518982 
	C433.898926,270.578369 429.740631,270.528503 424.927490,270.528503 
	C424.927490,278.532318 424.927490,286.289856 424.927490,294.164795 
	C431.832550,296.056396 432.671814,295.568268 435.347015,289.080048 
	C435.812439,287.951294 437.511871,287.172211 438.804535,286.600647 
	C439.640137,286.231201 440.805450,286.371124 441.766418,286.564331 
	C445.106903,287.235840 450.199005,284.367432 451.455139,288.905304 
	C452.703705,293.415619 452.463470,298.741821 451.404694,303.373901 
	C450.338257,308.039337 446.958069,310.616638 441.142761,310.173645 
	C432.198486,309.492310 423.163544,310.003723 414.167053,310.005676 
	C407.615570,310.007080 405.078979,307.473267 404.981781,300.834473 
	C404.969574,300.001617 404.976135,299.168518 404.975403,297.854919 
z"/>
<path fill="#040404" opacity="1.000000" stroke="none" 
	d="
M293.060455,309.005890 
	C290.588654,309.005890 288.605591,309.005890 285.967712,309.005890 
	C285.967712,290.423157 285.967712,272.049225 285.967712,253.096115 
	C290.224121,253.796448 295.253326,250.895325 298.876190,254.810043 
	C301.453369,254.306488 303.613037,253.558472 305.785614,253.518860 
	C313.442810,253.379303 321.104462,253.468109 328.764313,253.499741 
	C333.078522,253.517548 337.345398,257.454590 337.429993,261.777161 
	C337.521088,266.433472 337.449829,271.106659 337.148102,275.752899 
	C336.879700,279.886047 335.070068,282.550110 330.222839,282.142151 
	C326.612640,281.838287 322.956329,282.082275 319.185089,282.082275 
	C318.665527,277.980225 318.191589,274.238434 317.687317,270.257263 
	C313.929535,270.257263 310.342285,270.257263 306.332581,270.257263 
	C306.332581,283.080475 306.332581,295.831451 306.332581,309.005890 
	C301.796448,309.005890 297.672821,309.005890 293.060455,309.005890 
z"/>
<path fill="#080808" opacity="1.000000" stroke="none" 
	d="
M101.594025,308.925293 
	C101.991676,309.157715 102.017036,309.443634 102.030861,309.946167 
	C91.484985,310.161499 80.935844,310.161499 69.957962,310.161499 
	C69.957962,301.034058 69.477417,291.921204 70.226929,282.910675 
	C70.478439,279.887115 73.863060,277.124146 76.542183,273.169586 
	C78.150391,276.652985 79.149353,278.816742 80.564980,280.998291 
	C80.981651,281.016052 80.927635,281.095276 80.927635,281.095276 
	C82.929474,284.818939 84.501823,288.868896 87.028023,292.194214 
	C91.455910,298.022858 96.468735,303.407074 101.594025,308.925293 
z"/>
<path fill="#2C2C2C" opacity="1.000000" stroke="none" 
	d="
M80.938194,281.036194 
	C81.385590,278.172882 83.175240,276.587280 85.989067,277.173920 
	C92.586823,278.549469 99.135437,280.177277 105.658821,281.876221 
	C106.715561,282.151459 107.540802,283.315552 107.966866,283.659790 
	C99.300529,282.528076 90.397964,281.365540 81.211517,280.649109 
	C80.927635,281.095276 80.981651,281.016052 80.938194,281.036194 
z"/>
<path fill="#1C1C1C" opacity="1.000000" stroke="none" 
	d="
M119.543716,265.391357 
	C120.727280,266.178833 121.510796,266.968750 122.294312,267.758636 
	C120.263474,269.436096 118.318748,272.352478 116.181656,272.500977 
	C112.967430,272.724365 109.267883,271.397858 109.265724,266.379211 
	C112.651642,266.041443 115.897652,265.717621 119.543716,265.391357 
z"/>
<path fill="#1F1F1F" opacity="1.000000" stroke="none" 
	d="
M76.953613,266.058441 
	C76.365089,264.259674 75.991356,262.754669 75.266907,259.837250 
	C79.344666,261.906342 82.153931,263.331757 85.258499,264.907043 
	C82.383774,268.119019 79.887520,268.199615 76.953613,266.058441 
z"/>
<path fill="#1F1F1F" opacity="1.000000" stroke="none" 
	d="
M95.624245,269.818298 
	C91.493462,272.095337 88.884056,269.954315 85.298889,267.023438 
	C90.335213,267.023438 94.312691,267.023438 98.290169,267.023438 
	C98.372284,267.331482 98.454399,267.639526 98.536514,267.947571 
	C97.685753,268.542480 96.834984,269.137390 95.624245,269.818298 
z"/>
<path fill="#080808" opacity="1.000000" stroke="none" 
	d="
M117.493156,293.649292 
	C119.490738,296.435669 118.569107,298.215454 115.095001,298.080017 
	C115.663490,296.460907 116.423698,295.126465 117.493156,293.649292 
z"/>
<path fill="#080808" opacity="1.000000" stroke="none" 
	d="
M131.029785,260.722717 
	C134.938171,263.981934 134.938171,263.981934 132.136337,266.020477 
	C131.497772,264.394684 131.207489,262.727356 131.029785,260.722717 
z"/>
<path fill="#080808" opacity="1.000000" stroke="none" 
	d="
M132.776978,277.218811 
	C133.843521,277.588531 134.692383,278.176971 135.541229,278.765381 
	C134.217453,279.174591 132.893677,279.583801 131.219513,279.971924 
	C131.432495,279.113037 131.995880,278.275269 132.776978,277.218811 
z"/>
<path fill="#080808" opacity="1.000000" stroke="none" 
	d="
M164.780975,248.655426 
	C160.802444,249.222214 162.999420,246.697052 162.968781,244.853729 
	C163.610870,245.785919 164.244003,247.043182 164.780975,248.655426 
z"/>
<path fill="#080808" opacity="1.000000" stroke="none" 
	d="
M108.673645,303.046387 
	C107.986282,303.990967 106.985100,305.016632 105.635391,306.062073 
	C106.311180,305.097046 107.335503,304.112274 108.673645,303.046387 
z"/>
<path fill="#080808" opacity="1.000000" stroke="none" 
	d="
M130.110748,256.314514 
	C132.928894,256.907104 133.154572,257.438263 131.115173,259.016602 
	C130.546341,258.253326 130.298203,257.443817 130.110748,256.314514 
z"/>
<path fill="#080808" opacity="1.000000" stroke="none" 
	d="
M111.222923,310.338501 
	C111.607330,310.032074 112.231926,309.875092 112.963425,309.950134 
	C112.534584,310.284058 111.998848,310.386017 111.222923,310.338501 
z"/>
<path fill="#080808" opacity="1.000000" stroke="none" 
	d="
M164.726608,305.515320 
	C164.158966,305.598480 163.600861,305.586182 163.042770,305.573883 
	C163.385208,305.428101 163.727646,305.282318 164.389893,305.183258 
	C164.709686,305.229980 164.736160,305.419922 164.726608,305.515320 
z"/>
<path fill="#F0F0F0" opacity="1.000000" stroke="none" 
	d="
M200.378601,249.622955 
	C201.242035,256.880127 201.681473,264.040070 202.142929,271.558594 
	C197.057877,271.992065 192.842728,272.351379 188.388336,272.731110 
	C188.388336,264.743439 188.388336,257.003418 188.388336,248.613602 
	C192.477524,248.936066 196.216080,249.230881 200.378601,249.622955 
z"/>
<path fill="#F9F9F9" opacity="1.000000" stroke="none" 
	d="
M252.023773,268.314545 
	C254.946640,268.314362 257.404327,268.314362 260.157593,268.314362 
	C260.157593,277.454407 260.157593,286.191498 260.157593,295.425812 
	C255.776306,295.130096 251.738388,294.857574 247.165222,294.548920 
	C247.165222,285.939575 247.165222,277.553711 247.165222,268.531128 
	C248.417770,268.469421 249.988190,268.392059 252.023773,268.314545 
z"/>
<path fill="#EFEFEF" opacity="1.000000" stroke="none" 
	d="
M377.014038,291.760254 
	C376.109222,293.024292 375.249084,294.451538 374.285065,294.525604 
	C370.680145,294.802429 367.041229,294.636292 362.746857,294.636292 
	C362.528137,291.857056 362.326416,289.294098 362.092712,286.324371 
	C366.930695,286.324371 371.632111,286.324371 377.011078,286.324371 
	C377.011078,287.841919 377.011078,289.572083 377.014038,291.760254 
z"/>
</svg>